/* XPM */
static char *_186dbf4ffd94a45ecb27635e6d55128VDy948uxBKeNXOJU[] = {
/* columns rows colors chars-per-pixel */
"50 50 31 1 ",
"  c #000002",
". c #000103",
"X c #010204",
"o c #020305",
"O c #030406",
"+ c #040507",
"@ c #050608",
"# c #060709",
"$ c #07080A",
"% c #08090B",
"& c #090A0C",
"* c #0A0B0D",
"= c #0B0C0E",
"- c #0C0D0F",
"; c #0D0E10",
": c #0E0F11",
"> c #0F1012",
", c #101113",
"< c #111214",
"1 c #121315",
"2 c #131416",
"3 c #141517",
"4 c #151618",
"5 c #161719",
"6 c #17181A",
"7 c #18191B",
"8 c #191A1C",
"9 c #1A1B1D",
"0 c #1B1C1E",
"q c #1C1D1F",
"w c #1D1E20",
/* pixels */
"::<366>&&>355579&&&&&&&&@@+++@@%#+o...oo++++#++ooo",
"<<<<2<>:-:<33<<<<,:-%%@+@%@+++++oo++#%***#++##+o+o",
"32<,:-:>-:<<,---=&&&&%%&&%%@+++X++%*-:,,-%++##%%-:",
":,<-@@%-&><2,::---&--&-&=&@$@@@@%-:,,,--*#oo+**-31",
"@&&&@XO@&><<2<<3773<>-&%&&%%%%%&-:,1,-%##o.+%-:,**",
"+@@@+O+$,<<,,,55,,,>:&=&--&&--::*--:-*#+oo+*:,1,+o",
"%@+X@&-:3<,-&&:,@@&&-:<<:,::-:::**--*%#o+#*,551-oo",
":%XX$:2395,%+X+%::,,33553<,,:-:-:::*%#..#%,787,-o.",
"O..$273:3,%X.X@%@:59933<33<2<35551:%+++#133,%o...o",
"XOO@&&&&XOXXOX+@X@&:-:,,-:::,,<3::*o.o*,771-#o+#-*",
".OOO..X%%-:,:-@+XXXXX@=,----:-:-:-#o.%,885:%+%:1,,",
".XXXXX@&,<79972,:&@XXX@&::,,,:-&,*+o#-133,*##-38,1",
"%@+X@%%@+%-<579995<>&%++&::,:::-*+.o-3,*,:%%*-,133",
"<:&%&%++OX+%&:<5qq953,&@+@@&--::%+.*585-,:---**%--",
":::-%@+@&%@@@$%&3<<573<-++@@%&&-##%:351-:-*-:-*#++",
"X&,-@O@&XOOX@@&&@%%,3773:&&@+@@@o+*%#+o+*%%-:1::+#",
".o#*::::.oo++#%%-::<33353,:%@@$%oo++o+#*%***--:,%%",
".oo+#*-::*#ooo+%&--,<<3<33<::&&%oo++++#%****:,,1-*",
".....o#*3,:%#++o@$%&-:,,3533,-%@.o+###*:****::11--",
"......oo*-,31-+.XX+@%&&-,<3<,-@Xo+#%%*:,##%**-:,**",
"..ooo....+-131:*+XXO+++@&&:<,:%%*-**%%*-#+###**-**",
"oo+##o....o#*:35&&++XX++X+%-,,<,,,,*#++#+#++#+##--",
"+o++o+ooo...o*,33<-%@++@@+@%%::,***%+o++###+++#+*-",
"#+o..oo+.o.o+#%%95<:&$@@%%@XXX++.o+o++#**%##++++##",
"####+ooo##oo...o%:5q0,%.X+@$@++X..o+##*%*:,,*#++oo",
"11,:::::--*%#+#+O%,37733&@@+@+X++ooo+##%#*::-%**##",
"11,,,:::-:--*##+..+*,37q<,&%@+@$%#+oo+###%*---::##",
"-::---*-:-::--%%...o+%:,63<:&%%@##+ooo+##%%*%*****",
"---*-***::1131,,%#+++O++<<,:-@@X+oooo+##-*##++++--",
"#%#%#%#%%**--:::-*-*%%++%%&%%+..+o##%%**:*#oooo.%%",
"ooooooooo.o.o++#%%%%##++XX+OO+X+##*::::--%o.o++###",
"o+o+o+++o......o+o......O+XXX@%%**:111::*+..o%**:-",
"+++ooo.o..ooooo.++o.o##****:::,1,,:,,:::#o.o*:,,o+",
"+oooooo....oo.....+%*:,1,1,1111111,,:::-.+*::*#o+o",
"ooooo...oo.oo.oo+#*:33533331111,:,,:::-:+-11*+..oo",
"o.o.....+oo..+##::11,,:::,::::-:%%*-::1,31,*+oo#.o",
".oo.o.oooooo#%*:531:-*%**%***--**--:,,117:#...o+o.",
"o.oooooo++##%-::1,-*%%--*-*----:1,,,:::-*+..oo..oo",
"o+o++++##%*-:-::----:::,,,,,,:::,:-*%#++...ooo..o+",
"oo++####--:,::--%-:,1111311,:::-+#++o....o#o..+#+o",
":---****%*-:,,,1333333311::-%#+o...ooooo....oo++o.",
"*-******:::11111311,1,,:**%##oo.###oo......ooo+o+o",
"##%%*---,11113111,,--*%%+ooooo.o+#+oo...o.o.ooooo+",
".o+#**::--:,,,1,-:**##+ooooo.oo.....oo++oooooo.o+o",
"##%#%%%%##%*----*%%#+o..oo.........o+#%%+o+ooooo##",
"::**#+o.o++##%%###+++o.o........%#%###%#ooooo++o-*",
"-:-%%#++#####+oooo+oo+o++o+++###--*%#+o.ooo+o++#*-",
"##%**-*-**%%#oo.o.o+++###%**:,,1%##+o...o.oo+#+#%#",
"....ooo+*%*#++#%%#%*-**#%##ooo..o.ooo+o+++#%***-#%",
"....ooo+###ooo+#%###**#+ooo...o..ooooo+oo+#%%*-*%#"
};
