/* XPM */
static char *e092d87345e64290c708c64df01b9c47TWwNFzCjEDj1qKl8[] = {
/* columns rows colors chars-per-pixel */
"50 50 74 1 ",
"  c #CC2462",
". c #CD2D69",
"X c #D32767",
"o c #D52D6B",
"O c #DA2D6D",
"+ c #CA336D",
"@ c #D5326F",
"# c #D9306F",
"$ c #DE2F70",
"% c #CF3571",
"& c #CC3A72",
"* c #D63571",
"= c #DD3472",
"- c #D53B75",
"; c #DC3A76",
": c #D63E78",
"> c #DD3D79",
", c #E23475",
"< c #E13877",
"1 c #E63778",
"2 c #E43C7A",
"3 c #E93C7C",
"4 c #CF4078",
"5 c #D4437B",
"6 c #DD437D",
"7 c #DB487F",
"8 c #E3427E",
"9 c #E9407F",
"0 c #EE3F80",
"q c #DD4681",
"w c #D74981",
"e c #DC4B83",
"r c #D55085",
"t c #DA5187",
"y c #DD548B",
"u c #DE598E",
"i c #E44681",
"p c #EA4482",
"a c #E44B84",
"s c #EB4A86",
"d c #E54E88",
"f c #EB4E89",
"g c #F14585",
"h c #F14887",
"j c #F24D8A",
"k c #E25087",
"l c #E4538B",
"z c #EB538C",
"x c #E2588F",
"c c #EA588F",
"v c #F2528E",
"b c #EB5690",
"n c #E45A91",
"m c #EC5B93",
"M c #F35690",
"N c #F85592",
"B c #F35B93",
"V c #FA5A96",
"C c #F45F98",
"Z c #FB5E98",
"A c #EA6097",
"S c #EC6299",
"D c #EE699E",
"F c #F36097",
"G c #F3639C",
"H c #FB629C",
"J c #F5689F",
"K c #F267A0",
"L c #F469A1",
"P c #FC6CA4",
"I c #FD6FA9",
"U c #F970A6",
"Y c #FE72AB",
"T c #FF7BB3",
/* pixels */
"===,,,13,3<#=99<p2z88@8v88z7-78dkazkU+GmeeynrunTyu",
"oO,,==,1,<31<22882p@Ns88zB8dzaM6zzkacckJk5nDySmTuy",
"o=1,$,131,3hh9<89jv@v9>88s-azsM6aakF6J7eYelAynynyu",
"=11=O,339,,php298jV>v8>pzsa88k677V7kkB7lPewxnnSDun",
"=11$OO$,31O#<9992>9svv8aVMzkcFksdsaBebblmJlnmwnLyy",
"O=1,,,,,1,11<<<2h;>p9j8a6z88B8zz7dzBzG&m4blxLuSYnx",
"=O,11113$13g93<;j98888-s@f58f576skkv6zkGlmLmLSumLC",
"3,O$,O$13,$39<<<=882vp;p8888BF886Cazmemz54UxlSnDCy",
",3,O$11$3033=32j88f9Mf*6fV8v8F8H6d8zM&akm44LnSyyUS",
"O,,1$311O$1333#,V#89999j6v6fk85*aBk4zHC7len&xLtAuu",
"OOO,$1$1$$319932#998V98V8fv8c9f88aH88clJnGwmtJDLru",
",1,1$$$1111$3<399<<;f988f8V68B7zl7Bkl87FzIekGwSJun",
",1,,$,$11131311398999;89V688fB87zkMafddwmnPC77Duuu",
"XO$,$3,,1133033g89<<B98.jzfVM8zB;zCvdqbdlCnPAcDJDD",
"$,$31311$111333392h8o8H*8f8z9.fHa6dMbaClbtemP4UAyy",
"1OX1,$O,$1$13033=8s9j9N88886z66ffabzliddCClwAS7uSu",
"=3,333O3$1O1333j2.9N@9z8888H8M8a78z7H8867c7c77J5Sr",
"o<o#11O333=339=888*h6;=jjzz888a;fcB8BBc87T77F77Fln",
"#2Oo$1$3$$X19p29s9@j;9v88V8z68868F8B5Z7c77FlJmU7lI",
"=21=,,$131,329,;982v*sN8*MMsz;z888788lBBBc7c7Fccwy",
"o;3<,,,1,,$31gph989988@9;szsV6zs8f7z8c7B7F7lzz4Jne",
"=29<1O1<3313#<<;s@9>pp888s;ssss8B8z8H8zM84BcF7F7Se",
"2<3<1O11$$,3#222g@9#pzV*s89*s8z6BzkBkk8cFl7z7cz7Al",
";o,<3,1,1,13#22=#99>N@s9apzs8vvsjff8ffkB87cBlcc4wA",
"299,#,,$1111=,29j2;<ph899v79v79s8c8M87fM8d77c5baqy",
"#<3<,,1,1,O113=o2p=298v8spa9js8z888zMzc8k8567Flmbb",
"#<2<,1133333<p29@p<pp8j2p8988v8s88z8z8cc6B7zkalqdd",
"#<<<,13313$1=2<382p;*9pp86888zp8kss887zM8zm77abmde",
",;;=$$1331O,1pO 22p<28289s888pv8ff8jzkk8lzc5qdzlqe",
"<=,,#O$131$,23;o=2*pp<s;8v88p8za8j6z8zss6c8vdatqee",
"#@231O$31,3=1=281s$==;vp2sa9p88p8d8k88zz77c7&bqLbd",
" #3g<O$31,p,s=2=o2s22js98ps8pp-ss888B888k895dqdbdq",
"##o9,,o<329922*9-.98-88i;p>22fa*a868977857B8c7ildq",
"#229#2#<h2<##9;;i>=ss2s=2p288ip>passz88687B7z7iabd",
"o;#9O#O,,<9222@@>**p8=8=8sisspfp68887z7867zsdqadqq",
"<,#h2,O923g<@;;9>.>888;8>2=p>28i6666879787z8aqaell",
"9##99<,93<2@@9>*8*--2j2=sh=v8s8a9878878z-qiaadbbdl",
"#@##,<,,,,9999;2=>*=;;i=9p@s=8=-78977878vbds:qqqqw",
"#,##,11#3293;*<j=i<ii<spps<p82>>87988796q:qq:dfz0d",
",##,,#,,3,3992=22-2;pp=8<2p8s;a889c879l6diqq-qdeqq",
"9O##$11,,<#9<222;;ps;<92=p89i88;878-j+a6-abaqqdqqq",
"9##,$,,,1<#9,<98o2==p8<so92888a89;8*faa:a-qqfdvz*q",
"3##,$$$,1,,9<=22<=;<19p2*p2s288886f86faiq>d*q-qqid",
"<#O$,O,,,#$92<2>p;28;3s12p8j-8888-sa-6ia6azqqqdqqq",
"$,O=,O,,1$$23;9<;9<=92=p>2>f@i7as586q*a-0-%qqeqqad",
"#<O,1O$$3,,<2,p922322<=<2<2s28>ps888a%s6dqw0-aqaee",
"O<X,3O$O1,<12#998<ph==2=p28pia-i978fq>ia&qqq%qde:w",
"X=X,9$,$,,333o2<=222p2=22-22p8*88788>z-qbaddaqqqww",
"@2@@<#<3<#<<3<829>p988=882>926s888zk8kaaqqsiadbqq%",
"*8@@<#@<2=<29;828*8>28@2p9>888s887skakaiq6i-qqdw:+"
};
