/* XPM */
static char *_2ab8ff5065f4e98fda5095d4d88dc67nsz62qbD8o684iGO[] = {
/* columns rows colors chars-per-pixel */
"50 50 25 1 ",
"  c #144060",
". c #1B4665",
"X c #224C6A",
"o c #234C6A",
"O c #2A526E",
"+ c #315873",
"@ c #315874",
"# c #385D78",
"$ c #395D78",
"% c #3F637E",
"& c #40637D",
"* c #40647D",
"= c #40647E",
"- c #476982",
"; c #476983",
": c #476A83",
"> c #4E7087",
", c #4F7088",
"< c #55758C",
"1 c #59798F",
"2 c #5D7B91",
"3 c #658196",
"4 c #688498",
"5 c #6C879B",
"6 c #708A9E",
/* pixels */
"                                                  ",
"                                                  ",
"                                                  ",
"                                                  ",
"                                                  ",
"                                                  ",
"                                                  ",
"                                                  ",
"                                                  ",
"                             X                    ",
"                             ;                    ",
"                       #.    =                    ",
"                  X    X+    #.                   ",
"                  =     %    .&                   ",
"            @X    &     =     &     .O            ",
"            .%    O+    &.    ; .+;**.            ",
"             =     &    .+  .+1,*X                ",
"             %     %     2===X.=                  ",
"             +O    %.X=;=>     =                  ",
"              %  X%,1+   $.    -                  ",
"             .5%;+. %    .&    +X  .+;%.          ",
"         .%==%;     =     &    .1=;=X             ",
"       X$%.   O+    =.    - o=-=>                 ",
"               =    .+  o=1,+   %                 ",
"               =    .4*;+..&    @O                ",
"               =.%%;$;     =     =     ++         ",
"            .+;*1.   $.    &     = X=;=O          ",
"         +;%%.  %    .*    +X  X=4-+              ",
"         X      *     %    X3&;+.O+               ",
"                *.    ;.$%;$=     =               ",
"                .+ .+;>;.   %     %               ",
"                +6%$X .%    +O    %.  X%=;        ",
"            +%%*X%     %     =    O<%=+.          ",
"          O%O    %.    %     -.====-              ",
"                 .=    +X .+;1*.   =              ",
"                  %    $4%#X O+    %.             ",
"                  -X*-*X%     *    .+             ",
"               X=-<=    *     *     =             ",
"            ==:+  .*    +O    *.    =             ",
"            .      *     *    X+    +             ",
"                   =     =     %                  ",
"                   +X    %                        ",
"                   .=    X.                       ",
"                    *                             ",
"                                                  ",
"                                                  ",
"                                                  ",
"                                                  ",
"                                                  ",
"                                                  "
};
