/* XPM */
static char *_24dc667fea04de2a3fa889b54e52585QGuyhw86f3xruKp9[] = {
/* columns rows colors chars-per-pixel */
"50 50 256 2 ",
"   c black",
".  c #010101",
"X  c #020202",
"o  c gray1",
"O  c #040404",
"+  c gray2",
"@  c #060606",
"#  c #070707",
"$  c gray3",
"%  c #090909",
"&  c gray4",
"*  c #0B0B0B",
"=  c #0C0C0C",
"-  c gray5",
";  c #0E0E0E",
":  c gray6",
">  c #101010",
",  c #111111",
"<  c gray7",
"1  c #131313",
"2  c gray8",
"3  c #151515",
"4  c #161616",
"5  c gray9",
"6  c #181818",
"7  c #191919",
"8  c gray10",
"9  c #1B1B1B",
"0  c gray11",
"q  c #1D1D1D",
"w  c #1E1E1E",
"e  c gray12",
"r  c #202020",
"t  c gray13",
"y  c #222222",
"u  c #232323",
"i  c gray14",
"p  c #252525",
"a  c gray15",
"s  c #272727",
"d  c #282828",
"f  c gray16",
"g  c #2A2A2A",
"h  c gray17",
"j  c #2C2C2C",
"k  c #2D2D2D",
"l  c gray18",
"z  c #2F2F2F",
"x  c gray19",
"c  c #313131",
"v  c #323232",
"b  c gray20",
"n  c #343434",
"m  c #353535",
"M  c gray21",
"N  c #373737",
"B  c gray22",
"V  c #393939",
"C  c #3A3A3A",
"Z  c gray23",
"A  c #3C3C3C",
"S  c gray24",
"D  c #3E3E3E",
"F  c #3F3F3F",
"G  c gray25",
"H  c #414141",
"J  c gray26",
"K  c #434343",
"L  c #444444",
"P  c gray27",
"I  c #464646",
"U  c gray28",
"Y  c #484848",
"T  c #494949",
"R  c gray29",
"E  c #4B4B4B",
"W  c #4C4C4C",
"Q  c gray30",
"!  c #4E4E4E",
"~  c gray31",
"^  c #505050",
"/  c #515151",
"(  c gray32",
")  c #535353",
"_  c gray33",
"`  c #555555",
"'  c #565656",
"]  c gray34",
"[  c #585858",
"{  c gray35",
"}  c #5A5A5A",
"|  c #5B5B5B",
" . c gray36",
".. c #5D5D5D",
"X. c gray37",
"o. c #5F5F5F",
"O. c #606060",
"+. c gray38",
"@. c #626262",
"#. c gray39",
"$. c #646464",
"%. c #656565",
"&. c gray40",
"*. c #676767",
"=. c #686868",
"-. c DimGray",
";. c #6A6A6A",
":. c gray42",
">. c #6C6C6C",
",. c #6D6D6D",
"<. c gray43",
"1. c #6F6F6F",
"2. c gray44",
"3. c #717171",
"4. c #727272",
"5. c gray45",
"6. c #747474",
"7. c gray46",
"8. c #767676",
"9. c #777777",
"0. c gray47",
"q. c #797979",
"w. c gray48",
"e. c #7B7B7B",
"r. c #7C7C7C",
"t. c gray49",
"y. c #7E7E7E",
"u. c gray50",
"i. c #808080",
"p. c #818181",
"a. c gray51",
"s. c #838383",
"d. c #848484",
"f. c gray52",
"g. c #868686",
"h. c gray53",
"j. c #888888",
"k. c #898989",
"l. c gray54",
"z. c #8B8B8B",
"x. c gray55",
"c. c #8D8D8D",
"v. c #8E8E8E",
"b. c gray56",
"n. c #909090",
"m. c gray57",
"M. c #929292",
"N. c #939393",
"B. c gray58",
"V. c #959595",
"C. c gray59",
"Z. c #979797",
"A. c #989898",
"S. c gray60",
"D. c #9A9A9A",
"F. c #9B9B9B",
"G. c gray61",
"H. c #9D9D9D",
"J. c gray62",
"K. c #9F9F9F",
"L. c #A0A0A0",
"P. c gray63",
"I. c #A2A2A2",
"U. c gray64",
"Y. c #A4A4A4",
"T. c #A5A5A5",
"R. c gray65",
"E. c #A7A7A7",
"W. c gray66",
"Q. c #A9A9A9",
"!. c #AAAAAA",
"~. c gray67",
"^. c #ACACAC",
"/. c gray68",
"(. c #AEAEAE",
"). c #AFAFAF",
"_. c gray69",
"`. c #B1B1B1",
"'. c #B2B2B2",
"]. c gray70",
"[. c #B4B4B4",
"{. c gray71",
"}. c #B6B6B6",
"|. c #B7B7B7",
" X c gray72",
".X c #B9B9B9",
"XX c gray73",
"oX c #BBBBBB",
"OX c #BCBCBC",
"+X c gray74",
"@X c gray",
"#X c gray75",
"$X c #C0C0C0",
"%X c #C1C1C1",
"&X c gray76",
"*X c #C3C3C3",
"=X c gray77",
"-X c #C5C5C5",
";X c #C6C6C6",
":X c gray78",
">X c #C8C8C8",
",X c gray79",
"<X c #CACACA",
"1X c #CBCBCB",
"2X c gray80",
"3X c #CDCDCD",
"4X c #CECECE",
"5X c gray81",
"6X c #D0D0D0",
"7X c gray82",
"8X c #D2D2D2",
"9X c LightGray",
"0X c gray83",
"qX c #D5D5D5",
"wX c gray84",
"eX c #D7D7D7",
"rX c #D8D8D8",
"tX c gray85",
"yX c #DADADA",
"uX c gray86",
"iX c gainsboro",
"pX c #DDDDDD",
"aX c gray87",
"sX c #DFDFDF",
"dX c gray88",
"fX c #E1E1E1",
"gX c #E2E2E2",
"hX c gray89",
"jX c #E4E4E4",
"kX c gray90",
"lX c #E6E6E6",
"zX c #E7E7E7",
"xX c gray91",
"cX c #E9E9E9",
"vX c #EAEAEA",
"bX c gray92",
"nX c #ECECEC",
"mX c gray93",
"MX c #EEEEEE",
"NX c #EFEFEF",
"BX c gray94",
"VX c #F1F1F1",
"CX c gray95",
"ZX c #F3F3F3",
"AX c #F4F4F4",
"SX c gray96",
"DX c #F6F6F6",
"FX c gray97",
"GX c #F8F8F8",
"HX c #F9F9F9",
"JX c gray98",
"KX c #FBFBFB",
"LX c gray99",
"PX c #FDFDFD",
"IX c #FEFEFE",
"UX c white",
/* pixels */
"b N N n N N b n S ) ' / ) ( / ` / ( ) ) ] c b L W ( ) { ( ` ( T P x l b j z x h z c v V N M V N N Z ",
"( ) ^ ( ^ ~ ..I f.ZXsXaXtXhXhXhXfXtXdXzXeXk E ^.&X%X$XoXOX.X/.{.6.n c ] +. ...+.X.) ` R R E R R E T ",
"e.8.7.t.7.r.U D h.sX@X$X%X;X;X+X3X[.-X$X5.r ] >X].v.C.v.j.M.n.M.~ g f p.,X<X1X<X%XP.Z.5.1.9.5.1.8.7.",
"1X1X2X|.U.n.V S h.jX^.!.~.J.~.^./.K.`.A.{ y / ].H.b.Z.!.E.P.v.e.( k f g.kX6X&X*XqXaXwX<X9X*X<X>X;X:X",
"^.E.R.T.C.q.N C b.hXH.I.E.T.G.K.K.c.Y.F.{ s n e.A.J.A.v.H.Z.c.~ E k f h.9XE.A.S.B.K.G.M.V.D.A.J.D.B.",
" XN.J.H.k.=.v x b.BXD.v.H.W.A.v.b.M.K.v.| a G ~ k.U.~.P.K.J.D.F S z a z.eXP.A.c.v.A.f.J.z.D.Y.m.N.L.",
"R.W.F.V.>.R j w d.7XL.L.A.I.D.l.z.n.K.d.' y x Q { i._ / ~ ] ^ F s j n 0.jX[.C.j.x.m.h.S.I.m.M.T.b.b.",
"z.k.l.4.! T g j ;.uX`.P.F.z.n.m.m.v.T.8.-.h u Y A v k j k 0 y e < h W ! 5X~.N.M.F.Z.G.s.A.b.S.Z.b.v.",
"-.$.%.! b z y f [ *XY.C.v.0.d.E.M.M.m.h...Z p I F i k B J Q [ o.o.K W ` @Xx.v.a.c.9.8.*. .` ] [ ] { ",
"x l s l a p i G J ].<Xh.v.x.m.m.L.i.l.S.%.M s G ..j.J.;XyX9X9X Xh.Y Z { A.,.%.] ! Q G J G F v N m b ",
"p h l p x v m J J j.6XD.C.s.M.Z.j.M.B.f.[ M t h m.>XiX>XK.Y.R.n.@.f c S H H A F B A V p a a t u u y ",
"S B m n b n f J R 1.$XZ.G.K.k.m.j.m.E.2.' F u m F.aX(.x.c.v.j.B.` g z h f f a x a v f Z B N V N B M ",
"7.=.@.#.#.*.+.k J _ }.U.H.h.R.S.l.V.V.a...~ 7 z I.gXg.V.E.Z.G.V.' h k ] k.T.2.b _ ;.<.=.,.,.&.,.,.-.",
",X-X3X=X>X[.B.j n W B.'.Z.B.f.v.d.K.h.e.5.T 9 c K.<XH.J.M.G.P.c.) j d N.eXuX^ H x.<X9X9X7X8X0X8X8X6X",
"/.S.Y.K.!.j.>.B v ~ *.E.C.D.S.m.s.h.;.;.%.G 9 v D.+XT.w.:.4.o.[ ) l h *X%XA.v U  XrX@X X].oX|.'.|..X",
"U.c.Z.C.S.i.*.M h ( ! z.5.*.-.X.! } P ! N t r r z.a.$.;.b l l l v i G 4XE.Z.B I @X;XS.A.N.A.M.i.l.n.",
"Y.V.U.Z.F.j.` b j ` L n m Z v f l a 6 3 6 0 8 r ~ ( y 7 5 < t q y e / 9X_.R.M P [.~.Z.H.C.G.C.f.b.N.",
"F.V.7.M.Z.j.' m d E [ E N f i i t q j T J I I T 8.h.x.Z.s.u.t.' a L C.pXP.x.M L U.}.x.S.Z.m.B.r.g.V.",
"k.h.k.k.P.8.~ M r 5.tXwX;XoX^.L.<.G ~ e.[.&X<X;XeXhXrXiXdXdX].:.u ~ ;X:XJ.n.z L J.{.H.G.G.H.B.s.c.M.",
"G.P.Y.F.c.3.U B 6 !.*Xv.A.Y.Z.E.o.F ] }.cX=XOX/.!.U.].`.^.W.f.! t ` 0X'.m.h.h F f.G.a.9.9.t.t.b.D.V.",
"r.8.:.y.+.T D B 5 U.[.P.G.I.C.P.C Z [ 3X;Xm.F.a.L.H.v.m.H.c.t.P y ~ qX.XH.t.f J m ^ I U K ! ! / %.#.",
"I F C c d 0 w i r Q.!.K.A.W.C.9.x Z _ 8X~.F.D.L.n.v.t.H.C.D.1.P u / qXT.U.<.f ! c y s a a t e a N A ",
"g c g Z S L K ..x R.@Xp.D.L.C.0.S g / 5X Xl.V.s.p.s.m.z.k.U.5.P i ~ wX}.T.6.f ! b l N F I V J x p p ",
"$.x.(.=X4X+X+XR.l B.*Xz.d.V.Z.w.! e ! *X1Xv.M.B.A.0.N.g.h.K.8.F t ' 4XS.Y.g.r ^ v.U.v.;./ R I Y H E ",
"5.@XeX3XOX|.).P.y I.[.I.z.f.^.z.^ p ! ^.8XU.b.j.n.w.c.V.G.M.&.A r ` <X~.m.w.e O.7XF.%X7X XXX@X_._ E ",
"p.qXQ.F.N.A.F.V.V I..Xn.L.W.V.b.] d z g.jX_.Y.v.D.c.C.6.A.M.X.G e  .=XW.Y.<.t @.3Xy.H.Y.D.E.L.b.` K ",
"p.7XC.V.J.W.l.W.c H.OXN.R.n.H.f.{ s l 6.gXOXL.G.z.j.j.h.P.z.' b k ..*X(.K.t.r | 6XP.B.Z.G.C.H.l.K J ",
"f.7XH.D.M.Y.H.c.a A.-XN.v.V.W.x.' d z { *X&XJ.l.M.x.V.D.C.v.R u d X.:XT.B.%.p | :XS.Q.L.v.M.W.b.G L ",
"i.8XJ.L.J.F.F.A.g k.sXp.I.N.S.p.} s a Y G.rXD.M.Z.Z.S.v.s.#.Y p b { H.u.W N M R {.V.K.V.H.m.n.n.K A ",
"d.wXI.U.D.F.D.Z.g 0.yXk.C.B.M.b.X.s i I >.].I.w.%._ A Z c c b i V E L C H I E Z Q m F K H K F P N N ",
"p.7Xn.B.I.A.A.n.v  .qXG.F.P.x.c.{ d 0 F T ] ~ A l y r r a 6 i t V Q ( I R Q E R g l a i i i i u d N ",
"s.wXR.S.b.T.H.Z.B A wXJ.S.j.U.d.{ a e D E B k n l n L J G H K J J W _ =.,.:.;.:.5.2.<.<.1.1.1.7.^ P ",
"s.6XD.F.S.Z.G.>.n l rXY.z.s.V.z.X.k 0 l o.h.d.i.a.i.d.a.i.s.u.c.b.A.!.OX$X<X3X,X<X*X4X;X-X=X*X).W P ",
"y.2XU.T.S.W.D.E 9 V 8XD.D.N.v.g.{ F e e *.-X5XpXiXtXaX7XpXeXtXuXtXMXnXBXNXzXiXfXkXiXdXdX4XeX-Xy.c D ",
"e.-XY.S.G.S.m.R f D ;X`.m.B.Z.j.` D t 3 X.-X>XrXqXrX8X:X6X9X-XuX8X<X$X'.~.G.U.P.T.z.D.E.F.W.Y.-.D A ",
">.].v.E.h.;.9.I p J XXn.D.C.L.p.X.D r 7 / #X8XD.z.c.V.M.K.V.W.B.M.I.Y.Y.h.h.n.K.P.l.J.A.W.H.b.&.V v ",
"..`.T.B.2./ ^ t x D P.W.x.L.N.w.O.Z e q j OXaXT.B.n.S.M.x.Z.F.b.A.!.A.x.c.G.z.s.C.C.x.C.n.K.D.=.F N ",
"R ! L V ] } ] a D F a.l.p.w.q.&.} D e w i Q.hX}.V.B.V.b.g.Z.x.z.C.c.Y.l.N.A.F.b.Z.y.u.l.Z.f.s.>.x x ",
"^ L b k j h j m D H T H G L J L J Z e w y C.wX(.v.L.J.G.c.N.x.y.Z.V.l.L.B.s.m.n.s.A.Z.s.S.i.w.-.n c ",
"R ] [ ) E H a u H F b q u y t u e p t r j t.g.-.>.%.:.%.B.m.W.m.k.p.l.c.i.c.D.b.H.c.K.f.x.n.n.;.b x ",
"( U.%X>X%X}.v.*.:.( F f k i y z e x h l v ^ G V g x k g S =.=.r.4.2.3.2.3.1.2.4.3.3.2.5.4.3.4.} k M ",
"} -X;X+X[.pXiXtX>XS.b.c.p.y.y.1.,.$.o.{ ) ] T K S F H G h m Z C N C V B Z B M z x x z x x z c p h H ",
"' 1X+XD.Y./.U.{.:XrXwX8XeXuXwXwXqX8X%X*X`.T.P.L.K.3.R E S c j c n N C r a j z d h h f j g s x n D T ",
"] >XOXV.L.p.D.B.s.G.v.L.F.z.E.G.B.V.E.R.|.<X7X4X X2.m ~ W O.<.) B u M D K S z z c x l v x n V U ~ ( ",
"[ %XoXU.Y.b.H.D.C.].V.z.D.r.v.B.k.N.H.H.J.M./.^.e.T u Y ] 2X5X<X(.M.d.} ! O.M.b.n.V.m.v.k.e.<.` Q _ ",
"X.).d.>.9.%.5.t.4.t.9.>.6.8.>.1.5.r.7.9.0.3.r.q.#.! h c { wXY.&X,X6X1X;.R E.6X=XoX$X{.+X@XW.(.}.Y K ",
"] e.A M B Z V M C m N Z N N C V B B M V M V M N C A k 6 ( W.Y.^.l.0.Z.#.;.,XV.G.B.E.G.N.G.J.S.K.j U ",
"T x y i w e 6 u 5 u q w t y 9 r r 9 p 7 i 0 r t 9 y t r H K S D R U W F *.Y.p.x.A.j.l.M.j.M.f.6.x I ",
"] / W L A G V K B S c n N V x M M z Z k C x m N z V M m C [ ( U h f d g Z ! N g h k l g l k k b a Y ",
"G H H F G G K F K S S S A Z S A A D Z D Z S A A D Z A A A F H J F F F D S L M c b v v b v v v c v F "
};
