/* XPM */
static char *_d4efb8137ce42b9b70f39bc323231f8WEnL1ecdBtZGA3P7[] = {
/* columns rows colors chars-per-pixel */
"50 50 168 2 ",
"   c #040406",
".  c #0A0A07",
"X  c #03030E",
"o  c #0A0A0B",
"O  c #10100E",
"+  c #030314",
"@  c #01011B",
"#  c #0C0C1F",
"$  c #131314",
"%  c #1A1A17",
"&  c #141419",
"*  c #1B1B1A",
"=  c #20201F",
"-  c #000025",
";  c #0D0D20",
":  c #00002B",
">  c #0E0E2E",
",  c #161624",
"<  c #1C1C21",
"1  c #10102B",
"2  c #1A1A2C",
"3  c #000034",
"4  c #0D0D35",
"5  c #00003C",
"6  c #0C0C3A",
"7  c #161636",
"8  c #15153E",
"9  c #19193F",
"0  c #202021",
"q  c #2F2F2D",
"w  c #2C2C30",
"e  c #333331",
"r  c #36363E",
"t  c #000044",
"y  c #0A0A47",
"u  c #00004C",
"i  c #151542",
"p  c #191943",
"a  c #14144B",
"s  c #181849",
"d  c #000054",
"f  c #0A0A52",
"g  c #00005C",
"h  c #0E0E59",
"j  c #141453",
"k  c #11115E",
"l  c #262646",
"z  c #292941",
"x  c #24244A",
"c  c #3E3E5E",
"v  c #000063",
"b  c #0E0E65",
"n  c #00006C",
"m  c #0F0F68",
"M  c #111163",
"N  c #191965",
"B  c #10106D",
"V  c #000074",
"C  c #0D0D73",
"Z  c #00007C",
"A  c #0A0A7E",
"S  c #131371",
"D  c #3E3E62",
"F  c #3E3E70",
"G  c #4E4E4D",
"H  c #4A4A52",
"J  c #43435B",
"K  c #434364",
"L  c #000083",
"P  c #000080",
"I  c #070783",
"U  c #000084",
"Y  c #000085",
"T  c #000086",
"R  c #000087",
"E  c #070784",
"W  c #000083",
"Q  c #080887",
"!  c #0A0A86",
"~  c #000088",
"^  c #000089",
"/  c #00008A",
"(  c #00008B",
")  c #070788",
"_  c #070789",
"`  c #07078B",
"'  c #07078A",
"]  c #00008C",
"[  c #00008D",
"{  c #00008E",
"}  c #00008F",
"|  c #07078D",
" . c #07078C",
".. c #07078F",
"X. c #00008B",
"o. c #08088A",
"O. c #0A0A8C",
"+. c #000090",
"@. c #000091",
"#. c #000092",
"$. c #000093",
"%. c #070792",
"&. c #000094",
"*. c #000095",
"=. c #000096",
"-. c #000097",
";. c #000093",
":. c #080893",
">. c #080892",
",. c #080895",
"<. c #0E0E90",
"1. c #000098",
"2. c #000099",
"3. c #00009A",
"4. c #00009B",
"5. c #00009C",
"6. c #00009D",
"7. c #00009E",
"8. c #00009F",
"9. c #00009B",
"0. c #080898",
"q. c #08089A",
"w. c #0000A0",
"e. c #0000A1",
"r. c #0000A2",
"t. c #0000A3",
"y. c #0000A4",
"u. c #0000A5",
"i. c #0000A6",
"p. c #0000A7",
"a. c #0303A4",
"s. c #0101A4",
"d. c #0000A8",
"f. c #0000A9",
"g. c #0000AA",
"h. c #0000AB",
"j. c #0000AC",
"k. c #0000AD",
"l. c #0000AE",
"z. c #0000AF",
"x. c #0000AB",
"c. c #0000B0",
"v. c #0000B1",
"b. c #0000B2",
"n. c #0000B3",
"m. c #0000B4",
"M. c #0000B5",
"N. c #0000B6",
"B. c #0000B7",
"V. c #0000B3",
"C. c #0000B8",
"Z. c #0000B9",
"A. c #0000BB",
"S. c #0000BA",
"D. c #0000BC",
"F. c #0000BD",
"G. c #0000BF",
"H. c #0000BA",
"J. c #0000C0",
"K. c #0000C7",
"L. c #0000C3",
"P. c #0000C8",
"I. c #0000CA",
"U. c #0000CB",
"Y. c #0000D3",
"T. c #0A0AD4",
"R. c #0000DB",
"E. c #0D0DDB",
/* pixels */
"l P R R R R R R R R R R R R ~ ~ P z x =.=.=.=.=.=.3.=.3.=.=.3.=.=.=.=.=.=.=.3.3.S e C ~ ~ ] ~ ~ R p ",
"6 t.y.7.7.3.y.3.=.7.=.7.3.7.@.] R 1 s M.Z.b.y.Z.b.3.t.l.l.l.7.t.M.Z.d.l.M.G.M.l.b * %.M.d.d.b.l.3.7 ",
": 7.@.~ 3.=.@.~ =.7.Z =.R P Z V v + i b.d.3.] ] ~ v n v P 3.Z n Z P Z n R =.R V t O %.b.t.@.t.y.Z @ ",
": =.@.~ G.d.Z Z ~ @.R P n n V g g + , 3 3 : 3 : : - - - : 3 : - : @ + X + + o + X & >.l.b.b.y.=.V @ ",
": 3.~ y.J.3.R R =.7.3.@.V n n v d + 8 7.y.t.7.3.3.t.3.7.3.7.t.y.t.b % i a s a i 2 = %.l.y.7.R V g @ ",
": 7.7.d.l.y.7.~ @.y.3.~ Z n g g d + i l.G.I.M.t.y.d.3.7.y.y.l.l.y.v $ _ t.3.=.~ t * >.3.7.R R P n @ ",
": 7.~ 3.y.3.@.P R Z ~ ~ Z V V g t X 8 d.G.K.M.y.l.y.y.3.t.=.@.=.3.u $ | 3.@.R V 5 $ >.l.7.3.3.~ v + ",
": =.R @.=.Z R t.@.v v v n V Z n t + 8 d.b.l.7.3.d.l.d.t.] Z V Z Z 5 $ | y.~ P n 3 & >.~ =.3.t.P u X ",
"- ] ~ @.~ R P @.P n v v v g v v u X 8 b.b.l.d.t.l.Z.b.y.n n R Z v : $ _ =.] ] V 3 $ 0.7.7.Z P P u X ",
": ] @.Z Z ~ V n n V g g v u t u u X 8 l.d.y.d.l.t.l.l.y.~ P P n g 3 $ _ ~ ] Z n 5 $ 0.@.V n n Z g X ",
": =.] Z Z V v v n n n d u g u g u X 8 d.I.G.] =.3.] R R ] @.Z n g : $ _ 3.~ V n 5 $ E V v g u d t X ",
"@ g g u t t u 5 : : : : : : - : :   i l.G.M.] ~ 7.3.R R R V V n g - $ _ @.7.Z g 5 $ $ o o o o o o . ",
"d g d d d d d d d d d 3 : g d d u t 6 l.y.t.@.@.t.y.=.~ @.V n v u - $ _ t.t.7.n 5 $ j b M 1 M S m C ",
"Z.b.t.l.M.d.3.d.7.3.y.g g Z.l.Z.7.@.5 y.y.y.d.7.7.y.=.V Z n u g u - & I =.P Z V 5 $ | d.@.3 t.Z.b.G.",
"Z.y.3.=.y.=.P @.] Z @.v d Z.Z.d.] n 3 d.t.y.l.=.R R Z V V v t g u - $ I R g g g : $ o.d.] : 7.l.b.b.",
"y.3.d.b.7.P R ~ ] Z Z d g G.y.7.3.v 3 d.d.t.7.3.R V n n g g v d d - $ I Z g g d - $ o.Z n - 7.G.b.b.",
"t.@.7.M.l.R ~ P V n Z d d b.t.P ~ v + t t 5 t 5 3 : : : - : - @ @ X $ 6 3 - - @ + o 5 : - ; y.M.d.y.",
"y.~ ~ 3.t.~ P R n V n 5 g y.=.V Z d X * , , < , , , , , , , , , , 2 2 , & % b ] ] ~ R ~ f < a.d.7.=.",
"b.3.] @.@.] =.Z V n n 5 d Z.=.Z v d o k x.a.a.d.a.a.a.a.a.a.a.q.a.x.t.=.b * O.K.Z.G.d.y.d * a.a.3.=.",
"l.7.R 3.y.@.R ~ Z n g 5 d t.Z Z n d o M G.l.M.I.U.G.I.b.b.b.t.l.b.b.3.] t o ! I.J.I.d.@.u * a.m.t.7.",
"y.] R 3.b.7.] ~ ~ Z g t u Z g g g d o M M.d.J.Y.R.I.R.U.b.@.3.@.3.~ 3.n 5 O ! G.Z.Z.3.] 5 * a.G.l.y.",
"d.7.7.3.y.d.Z V V n g 5 X + o X X X o M Z.Z.b.G.K.d.G.U.l.=.Z Z P R V v 5 $ ! J.l.y.3.R 3 & a.Z.M.l.",
"t.~ 3.t.7.3.V n g g u 3 O p j j a s 0 M b.b.b.d.7.t.b.y.t.=.P ~ P V v g t O ! U.Z.7.=.P 3 & a.y.b.M.",
"3.@.@.t.3.Z n g g v d t O o.l.t.y.~ * b M.l.Z.3.~ t.l.~ 7.t.R R Z n V v 3 O ! J.M.=.t.@.3 & a.l.7.=.",
"@.~ R ~ ~ n v n V n u 3 O ! d.7.@.Z o M G.M.l.d.y.t.3.Z ~ 7.R v v g n v : $ ! M.t.7.y.=.3 & a.=.@.@.",
"=.3.3.Z Z V v n V n d : O ! y.=.R v o M M.t.=.y.l.t.~ V Z n V n g 5 d d : O ! M.l.3.l.@.3 * q.@.P Z ",
"@.7.] P V V g u d v g : O ! l.3.R g o M t.y.7.3.=.R V V Z n n v g d g g : o ! Z.b.=.P Z 3 * a.d.~ R ",
"P ] R V Z Z v d g g g 5 O o.M.y.V d o M y.l.] y.Z n v V P V g g g g d u : $ ! K.t.] Z n 3 & a.y.t.@.",
"P Z V V n Z v g u d g 5 O ! t.] V g o k @.Z ~ P d u u d g d d 5 5 5 3 3 - O ! G.=.~ @.Z 3 * a.7.t.R ",
"R ] V V V v g t u u t : O ! t.7.R d o $ o o o o o o o o o o o o . o o o . % I b.7.V V n 3 & a.3.~ Z ",
"P @.R n V n d t t u u : O ! l.@.R d o p m m m m M M m m m m M M m m B M j = A l.l.7.V g @ & a.y.R P ",
"- - - @ - - @ @ @ @ + X O o.d.Z n u o M M.Z.Z.Z.Z.b.d.d.y.d.d.y.] 7.y.t.v $ I Z.d.b.] d - & 3 3 : - ",
"< 7 7 i g n V P R P V f < A y.P Z d o M Z.I.K.b.y.l.M.G.3.=.7.3.~ ] ] @.d O A l.t.@.Z d - & n I V @ ",
"p a.b.Z.G.Z.M.Z.Z.b.M._ * A y.P V g o M G.J.K.J.G.b.M.d.P Z Z ] 7.@.~ R u o A Z.] n g g - & E R Z @ ",
"p l.M.Z.U.G.b.M.l.t.M.P o A 7.Z d d o M Z.Z.M.U.Y.Z.3.=.Z Z V V R Z Z P t $ A t.V n g g - & I Z n @ ",
"s Z.M.M.U.K.y.7.l.b.y.Z O , @ + + X . M b.Z.M.Z.U.I.d.t.=.Z V n v n Z V t O b V v d u u @ * Z V v @ ",
"s b.b.y.d.b.t.=.t.b.7.v O p s i i i = k d.Z.M.3.l.l.l.t.3.@.P n n n g u 3 $ $ o o o o o . * h f y + ",
"s Z.d.7.d.y.t.t.y.t.l.V O O.d.l.3.~ * h b.J.Z.7.3.b.b.y.P P R n v g g t : o j B M B B B m S C m B @ ",
"s Z.M.b.y.7.7.y.] @.3.V $ O.y.l.3.V o k b.l.l.d.d.G.G.M.3.P Z v v v v d 3 O o.M.l.M.Z.Z.M.t.M.b.7.- ",
"s b.b.t.d.M.l.=.V V t.V o O.b.=.@.V o k M.d.t.t.y.M.Z.G.d.t.Z g g g n n t O ! l.G.U.Z.l.t.3.y.7.P @ ",
"s M.y.t.T.E.d.=.=.P =.n O O.b.7.] P o k b.M.t.t.] ] l.M.y.3.P v g g d u 3 O ! M.G.K.I.b.t.=.=.~ n @ ",
"s M.M.b.T.E.d.@.t.Z v d O O.b.y.@.v o M d.M.3.R Z Z ~ @.] v Z R n g d t : O ! b.y.t.l.d.3.~ Z V v + ",
"s b.b.b.b.t.] ~ P v u t O >.Z.d.] v o k y.M.l.t.~ Z Z Z P n Z 3.R V g g 5 O ! M.t.=.3.3.Z n V v g @ ",
"p l.M.l.=.R @.7.3.P n t O O.b.7.R V o k M.y.d.l.] R V Z Z g v ~ ] V v g : $ ! b.y.7.7.3.Z n V V d + ",
"s b.b.d.] @.Z 3.t.| V t O O.Z.3.n v o k b.y.7.@.] y.3.V v n g v v v g u : O o.Z.l.3.d.l.=.Z @.~ d X ",
"s d.7.@.@.R g V =.2.V u O O.M.] n d o M l.y.=.t.7.] t.Z g n n d t u u t : $ O.Z.3.3.d.l.t.P P R g X ",
"s d.R V Z P Z Z Z v v t O ! t.V n d o k l.l.3.M.t.v n v g g u d u t u t : O >.M.d.d.3.R P V Z n u + ",
"i t.] Z V V v v n n V u $ ! 3.Z n v $ k d.d.l.] R n n n v d t v V v d u t & O.Z.y.3.] Z Z Z V v v @ ",
"x ] R Z Z Z Z V V Z Z m q C ~ Z Z V w N b.=.@.~ P Z Z Z V V n Z Z Z V n b q O.3.~ P ] Z Z Z Z V Z 1 ",
"H D D c J c c D c c K J G J c c D J G J K F D D D c K c c c c c c c c D J G K K D c J c c D c c J z "
};
