/* XPM */
static char *_2d11d3189e04a7a9654c93a7c35466ewmz352zTFQfO5J1W[] = {
/* columns rows colors chars-per-pixel */
"50 50 33 1 ",
"  c #2B6C9B",
". c #35739F",
"X c #3573A0",
"o c #3F79A4",
"O c #3F79A5",
"+ c #457EA7",
"@ c #4880A8",
"# c #4981A8",
"$ c #4981A9",
"% c #5287AD",
"& c #5387AE",
"* c #5A8CB1",
"= c #5D8FB2",
"- c #5D8EB3",
"; c #6393B5",
": c #6695B7",
"> c #6795B7",
", c #6996B8",
"< c #6D9ABA",
"1 c #709CBB",
"2 c #719CBC",
"3 c #739EBC",
"4 c #769FBE",
"5 c #7AA3C0",
"6 c #7BA3C0",
"7 c #87ABC6",
"8 c #87ABC7",
"9 c #89ADC7",
"0 c #89ADC8",
"q c #93B4CC",
"w c #96B6CD",
"e c #9DBBD1",
"r c #9FBDD2",
/* pixels */
"                                                  ",
"                                                  ",
"                                                  ",
"                                                  ",
"                                                  ",
"                                                  ",
"                                                  ",
"                             +                    ",
"                             <                    ",
"                       *.    :                    ",
"                  +    +&    -X                   ",
"                  :     ;    X:                   ",
"            &O    ;     :     :     .#            ",
"            X:    +&    >.    1 X#2,:.            ",
"             :     :    .&  .&96:+                ",
"             :     :     9:::OX:                  ",
"             &+    ;.+>1>4     >                  ",
"              ,  +:69&   -.    2                  ",
"             Xe><&. :    X:    &+  .&,>X          ",
"         X->2-3     >     >    X9:3>o             ",
"       O-:.   +&    :.    1 +;<,3                 ",
"               ,    X&  +:76&   :                 ",
"               ,    .w:<&.X,    &@                ",
"               ;+*:<-2     ;     :     &&         ",
"            .&<>8.   -.    :     < +:<:@          ",
"         &1:*+  :    X:    &o  o-w1&              ",
"         +      :     :    +q-<&.#&               ",
"                :.    2X*:<->     <               ",
"                X& .&<4<.   :     :               ",
"                &r:-+ .:    &+    :.  O-:2        ",
"            &:<:+:     >     :    +9-<&.          ",
"          +>+    :.    :     2.-<:-1              ",
"                 .*    &+ .&30,X   :              ",
"                  :    *e;*o +&    :.             ",
"                  1+>1:+;     :    X&             ",
"               o:<8*    >     :     2             ",
"            -:1&  .:    &+    >X    :             ",
"            .      :     ,    O&    &             ",
"                   ;     2     >                  ",
"                   &+    >                        ",
"                   .:    o.                       ",
"                    :                             ",
"                                                  ",
"                                                  ",
"                                                  ",
"                                                  ",
"                                                  ",
"                                                  ",
"                                                  ",
"                                                  "
};
