/* XPM */
static char *a004df4af60b48a5d3ee504a419953feBeOxpTvYR5tTfX2t[] = {
/* columns rows colors chars-per-pixel */
"50 50 196 2 ",
"   c #111F1F",
".  c #1D1E1E",
"X  c #270E0E",
"o  c #290A0A",
"O  c #350707",
"+  c #3D0404",
"@  c #340C0C",
"#  c #3C0C0C",
"$  c #2D1313",
"%  c #231C1C",
"&  c #2B1B1B",
"*  c #331414",
"=  c #3C1515",
"-  c #331B1B",
";  c #3D1919",
":  c #142525",
">  c #1A2727",
",  c #172828",
"<  c #1D2C2C",
"1  c #163131",
"2  c #1B3232",
"3  c #1F3B3B",
"4  c #262424",
"5  c #2B2424",
"6  c #232C2C",
"7  c #2D2B2B",
"8  c #322424",
"9  c #3C2020",
"0  c #332B2B",
"q  c #3C2C2C",
"w  c #233333",
"e  c #2B3333",
"r  c #243B3B",
"t  c #2A3C3C",
"y  c #323434",
"u  c #3A3434",
"i  c #343B3B",
"p  c #3A3D3D",
"a  c #430303",
"s  c #4C0101",
"d  c #430B0B",
"f  c #4D0E0E",
"g  c #530202",
"h  c #5C0000",
"j  c #500E0E",
"k  c #411717",
"l  c #4C1111",
"z  c #411919",
"x  c #481919",
"c  c #521212",
"v  c #5A1313",
"b  c #640000",
"n  c #6C0000",
"m  c #620A0A",
"M  c #740101",
"N  c #7C0000",
"B  c #710F0F",
"V  c #641C1C",
"C  c #731B1B",
"Z  c #731414",
"A  c #452C2C",
"S  c #4E2F2F",
"D  c #532E2E",
"F  c #403636",
"G  c #4E3131",
"H  c #413C3C",
"J  c #4B3D3D",
"K  c #553434",
"L  c #5E3636",
"P  c #543C3C",
"I  c #5C3B3B",
"U  c #692424",
"Y  c #642D2D",
"T  c #6B2E2E",
"R  c #732626",
"E  c #7C2222",
"W  c #742C2C",
"Q  c #7C2929",
"!  c #643535",
"~  c #6A3434",
"^  c #643A3A",
"/  c #6B3C3C",
"(  c #773232",
")  c #7B3232",
"_  c #733C3C",
"`  c #264141",
"'  c #2D4343",
"]  c #2F4949",
"[  c #334444",
"{  c #3B4343",
"}  c #354B4B",
"|  c #3C4B4B",
" . c #3B5353",
".. c #454444",
"X. c #4B4545",
"o. c #444C4C",
"O. c #4C4B4B",
"+. c #554242",
"@. c #5D4242",
"#. c #524D4D",
"$. c #435454",
"%. c #4A5454",
"&. c #465B5B",
"*. c #545252",
"=. c #585555",
"-. c #595B5B",
";. c #644242",
":. c #6B4242",
">. c #674949",
",. c #694848",
"<. c #734242",
"1. c #744B4B",
"2. c #725353",
"3. c #4C6161",
"4. c #586666",
"5. c #546262",
"6. c #840000",
"7. c #8B0000",
"8. c #930000",
"9. c #9B0000",
"0. c #861111",
"q. c #921616",
"w. c #9C1414",
"e. c #951C1C",
"r. c #9C1B1B",
"t. c #A30000",
"y. c #AB0000",
"u. c #A50C0C",
"i. c #AA0D0D",
"p. c #B40101",
"a. c #BB0101",
"s. c #B40C0C",
"d. c #BC0C0C",
"f. c #A21414",
"g. c #AB1212",
"h. c #A31C1C",
"j. c #AC1D1D",
"k. c #BC1313",
"l. c #BC1A1A",
"z. c #B31C1C",
"x. c #842727",
"c. c #862A2A",
"v. c #842C2C",
"b. c #812E2E",
"n. c #892A2A",
"m. c #8B2A2A",
"M. c #892929",
"N. c #8B2C2C",
"B. c #8F2F2F",
"V. c #8A2929",
"C. c #932626",
"Z. c #9D2222",
"A. c #902B2B",
"S. c #962C2C",
"D. c #992C2C",
"F. c #843232",
"G. c #8B3030",
"H. c #8D3333",
"J. c #8A3B3B",
"K. c #903232",
"L. c #923131",
"P. c #963232",
"I. c #9F3030",
"U. c #9A3232",
"Y. c #933A3A",
"T. c #993D3D",
"R. c #A02525",
"E. c #AC2424",
"W. c #A42929",
"Q. c #C10000",
"!. c #C30000",
"~. c #C50000",
"^. c #C70000",
"/. c #C20101",
"(. c #CB0000",
"). c #CF0000",
"_. c #CC0000",
"`. c #CB0101",
"'. c #C10808",
"]. c #D10000",
"[. c #D50000",
"{. c #D70000",
"}. c #D00000",
"|. c #DA0000",
" X c #D90000",
".X c #DC0000",
"XX c #DA0202",
"oX c #D20D0D",
"OX c #D80C0C",
"+X c #C31010",
"@X c #E30000",
"#X c #EC0000",
"$X c #F60000",
"%X c red",
"&X c red",
"*X c #8B4242",
/* pixels */
"p ' [ ' ' ' [ ' ' ' p p p ` ' ' ' ' ' [ [ [ } [ ' ' ' ' [ p p [ ] ' [ } ' ' ' ' t t ' ' [ [ ' [ [ y ",
"P C.G.c.n.n.G.m.c.v.+.$.<.e.v.N.n.m.c.B.K.K.G.K.N.B.c.n.W X.o.J.I.U.P.P.K.m.A.c.E E M.c.H.F.Q W Q J ",
"~ &X(.`.].p.|.a.|.9.F  .E.$Xp./.!.a.!.a././.(.a.!.p.|.].6.p [ '..X.X.X`.|.!./.a.{.|.a.!.y./.a.(.y.A ",
"/ !.6.9.7.9.6.8.6.h 8  .S.!.6.8.9.M 9.6.6.t.7.N 9.M t.N g y %.g.t.8.n 9.6.M 9.N 8.t.6.8.M 9.M 9.b 9 ",
"/ a.6.9.6.9.8.6.8.a 9 $.P.y.t.9.7.7.8.7.6.8.M 6.7.N 7.N s y  .g.6.7.6.8.M 8.6.8.7.8.6.t.7.8.N 9.h 5 ",
"^ p.7.9.7.9.N 8.N s 5  .c.].7.9.6.8.8.6.6.9.6.N 8.6.7.N s 7 { w.9.8.6.8.6.6.M 9.8.8.6.t.7.9.N 9.h 5 ",
"^ p.6.7.b 7.b N N s 5 | Q y.N n N N N 6.b M 6.N 6.b 6.M s 7 | u.7.n n N n M n M 6.n b 6.h M 7.6.h 5 ",
"P M h g + + + + a + 8 { Y b g g g s g g s s + + + + a a O 7 o.C h g h g g g g g s s s s s s g + a 8 ",
" .` 3 r ' ' ` r < 1 w } o.p t ` ` 3 1 1 3 ' r 2 < 3 ' ' ' [ $.] ' ] ' }  .} [ ] r w 6 e 3 ` ' ` ' r ",
"z.f.w.q.e.r.e.q.q.q.q.q.Y %.@.l.j.j.h.f.j.Z.h.r.w.r.r.e.q.Z.q.q.Z.Z.Z.R.W.D.R.C.r.^ { :.l.E.h.j.j.h.",
"a.8.a.t.9.t.9.y.9.t.y.8.z  .<.|.t.(.t.y.8.a.8.a.y.y.8.8.y.t.t.t.t.t.t.y.t.(.y.(.8.;  .T &Xt.y.y.y.p.",
"6.9.8.6.6.M 7.6.n 8.9.b & [ ^ (.N 7.6.9.6.7.N 7.n 6.7.7.N 6.N t.B N 9.7.N 8.7.7.h 8 | / a.6.9.N 7.8.",
"7.9.8.7.N 7.N 9.N 6.6.b * t ^ y.7.t.7.6.M 8.n 8.6.N 9.N N 6.6.9.b 6.8.6.6.6.9.6.h & [ ~ a.7.t.8.9.6.",
"8.6.8.6.N 7.N 9.M 9.8.b * [ :.`.M 8.7.9.M 6.b 6.b 9.7.n 6.8.N n 6.7.M 9.M 9.N 9.b $ t / y.8.8.N 9.6.",
"N 7.b h M 6.N 6.b N N b * | >.a.6.N b 7.N N n 6.b N 6.6.M N N N n 7.n 6.h 7.N 6.b X [ ~ p.N M g 6.M ",
"@ # # # # # O # # # @ O 9 | P Z l j f l j f l c c c d d d d d d d d a # d d d d @ & { I B # d @ d # ",
"o.} r w | ' t t } t w w [ o.|  .} ' t t t t { { } } ' } r w 2 r ' } } t 2 t [ } | | $.$. .r ' | [ { ",
"1.OXd.d.k.d.+Xs.u.i.u.i.u.i.i.i.i.i.u.i.i.0.O.%.l.oXd.+Xd.d.d.d.'.s.g.u.u.u.u.i.u.i.g.t.u.u.i.g.u.P ",
"_ @Xt.p.t.t.9.8.y.t.9.p.y.8.9.t.t.t.6.a.9.a p &.oXp.t.p.t.7.y.9.9.t.7.M t.6.7.t.6.t.9.7.9.7.9.N M 4 ",
"Y a.6.9.7.N M 6.9.7.8.8.7.n 8.N 9.M N 6.8.a y 5.l.a.8.N 7.M N 7.7.6.6.8.N 6.6.N 9.7.7.6.y.6.8.n g 5 ",
"^ y.8.8.n N n 7.8.N 6.9.N M 7.6.8.8.n 8.b + p 4.k.8.7.7.7.M 8.6.9.N N 7.7.6.N M 9.7.8.6.9.6.9.M g 5 ",
":.p.b 7.b 6.6.N 6.N N 9.M N 9.M 6.N 6.6.9.a y %.l.y.6.6.8.6.8.M 6.N N n n N M 7.M N 6.9.N h N 6.g 5 ",
"! (.N n N b n h M N M N M N n b b N M M b a 7 | s.8.N 6.M n M M n M N N n M b 6.h N b N M b 6.6.h 5 ",
"X.U z ; z z k z z k ; = ; * & - 9 - - - & - e O.! = ; k ; k k = # = * ; z 9 ; * * * ; * ; & * z * 5 ",
"*.%.%.O.{ { { i i { %.-.*.#.#.O.#...p u H p F #.X...O.{ X.o.O.p t i u ..*.#...p i ....X...O.X.{ O.p ",
"a.a.a.a./.a.a.a.C [ +.{./././.`.a.p.p.p.y.p.y.y.p.y.a.y.p.p.y.K &.F..X`./.!.`.a./.a.p.p.y.p.p.p.p.p.",
"t.8.t.t.y.t.p.6.@ | +./.M 6.6.9.6.8.7.t.N 7.N 8.9.n t.N 8.6.n 0 &.H.!.n 7.6.9.n 9.6.6.7.7.7.7.7.7.6.",
"7.6.9.7.8.6.9.b * [ @.y.6.t.6.9.7.8.N 8.8.M 6.N 7.8.N 6.9.7.M 0 3.Y.!.N 8.7.8.7.8.y.6.7.7.6.9.7.8.M ",
"9.N 9.8.t.6.7.n = { @.`.M 7.6.9.b 6.7.7.N 7.6.M 7.M 8.N 6.t.h 0 3.T.y.8.8.7.N 9.8.N 8.7.8.8.9.6.M 6.",
"9.6.9.7.8.7.8.M * o.@.9.6.9.b t.N 7.8.8.9.N M b 8.M t.6.9.7.M 8  .H.a.N t.7.9.8.6.9.8.8.6.8.8.6.y.6.",
"g h M b b n h g = { +.8.M 7.n 6.n 6.N n M b n N M b M M N b s -  .v.t.b N N 7.N 6.6.N N N M M M 6.h ",
"5 4 4 4 4 4 5 4 4 [ %.G & % & 5 8 0 u 0 % % % % 5 8 8 5 4 5 4 e | X.q 8 8 0 u H 0 5 & % 5 8 5 5 4 5 ",
"#.:.L ^ D ^ ^ K S D I I S D I I I I ,.;.I G S I I ..%.P ! L L ! :.:.:.K ;.@.1.2.;.I I K ;.;.^ P I ..",
"~ #Xa.!.!.a.`.y.a.p.p.y.p.y.p.p.p.p.y.y.y.!.t.a.7.H  .k.$Xa.a.a.!.p./.p.t.a.9.p.y.p.p.y.p.p.t.a.t.A ",
"/ /.M 7.M N 9.N 8.N N b 9.n 7.n 8.6.M 6.7.8.N 7.s 0 $.j.t.N M n n n n 6.6.6.n 6.6.N N 7.6.7.6.N h 4 ",
"~ !.n 9.M 6.M 8.6.8.N 7.8.6.8.n N 7.n 6.N N 7.N s 0 } f.t.8.b N 9.b 6.6.M 9.M 7.M 7.6.9.7.6.6.6.M 5 ",
"! `.6.9.N 6.7.N 9.6.8.n 8.n 7.b 9.M 9.6.7.9.6.N s 7 } j.y.b 9.M N N 6.7.N n N M 7.6.7.6.8.N 7.7.b 4 ",
"^ ].M 7.6.6.6.8.6.8.7.8.9.n 8.M M 9.N 6.7.6.6.9.h .  .j.t.M N N N n 8.6.M 6.6.N 6.8.6.8.8.7.7.N n 4 ",
"^ t.b M b n n M n b h h b h g g s h g b h b b h a 8 %.e.M M n n M h M b h b h h b h b b h h b h g & ",
"{ [ 6 w e e e w w t { t < > 4 5 e < > : > 2 w , 6 t } { y w w e e 4 < w i p 0 < w w < :   , w w w r ",
"F.b.F.F.) ) ( ( ( *X*X) J.W #.%.<.m.R E Q F.H.F.W W ) W ( ( ( ( W ( ( F._ %.%.F.v.F.Q C v V U ( F.) ",
"p.y.p./.9.9.y.p.a.y.9.y.y.6.u  .g.@X/.`.y.p.t.a.p.t.t.y.a.y.y.t.y.9.y.7.m { O.@Xa.t./.t.y.p.y.y.t.t.",
"8.n 6.7.6.M N N 6.n n M N g 7  .h.8.6.7.M b g 6.N 7.M M 8.b N M M M N M @ { *.s.M M N N 7.M 7.N 8.g ",
"9.n M 7.N 6.M 9.n 6.6.M 8.a q } r.t.h 8.N M 7.6.7.M t.N 7.N 7.N M 6.N n # p =.a.6.N M t.7.N 7.M b 7.",
"N 6.7.M 6.N 8.6.8.h M 7.6.s 0 } r.8.M 6.6.6.n 6.M M 7.N M N M 7.M h 7.b @ p O.d.6.M 9.6.N 6.M 7.M 9.",
"M 9.6.M 9.M 8.M N N 6.8.6.h 7  .h.M 9.7.6.M 7.b M M M 7.N N 7.M 6.M N M # i X.p.6.7.n N 9.6.n h 8.M ",
"6.N N n M M n 7.M 6.M n 6.g 0  .h.t.s 7.N 6.n M 7.N 6.b 7.n 8.M 6.N M M + e X.p.b h 6.n 7.7.6.N 6.M ",
"# # # # d # # # # # # d @ @ 0 $.T f @ @ @ # # # # # # # # # # # @ O # @ o e *.C @ # # # # @ # + # d ",
"p [ { i e i p p { { { i { p { *.%.$.X.{ { { { { { { i i { p e 7 e 7 e p e y O.| i p { { p e w e p { ",
"*.*.*.#.O.*.*.*.*.=.-.#.*.*.*.*.=.=.=.#.*.*.*.*.=.*.*.*.*.*.#.%.*.#.*.*.*.O.*.*.*.*.*.*.*.*.*.*.*.*."
};
