/* XPM */
static char *_1f69721b16b4827fe2963b472e96e16kzKy3BLkFOqYvFyj[] = {
/* columns rows colors chars-per-pixel */
"50 50 21 1 ",
"  c #4D98CF",
". c #539BD0",
"X c #529CD0",
"o c #589FD2",
"O c #5DA1D3",
"+ c #5EA2D3",
"@ c #63A5D5",
"# c #68A8D6",
"$ c #69A8D7",
"% c #6EABD8",
"& c #6EACD8",
"* c #74AFD9",
"= c #77B0DA",
"- c #79B2DB",
"; c #7AB2DB",
": c #7FB5DD",
"> c #82B7DD",
", c #84B8DE",
"< c #8DBDE0",
"1 c #8FBFE1",
"2 c #92C1E2",
/* pixels */
"                                                  ",
"                                                  ",
"                                                  ",
"                                                  ",
"                                                  ",
"                                                  ",
"                                                  ",
"                             o                    ",
"                             *                    ",
"                       #.    %                    ",
"                  o    o@    #.                   ",
"                  %     %    .%                   ",
"            @o    %     %     %     X@            ",
"            .&    O@    %.    * X@*%%.            ",
"             %     &    .@  .@,-%o                ",
"             &     %     ,%&%o.%                  ",
"             @O    &.o%*%-     %                  ",
"              &  o%->@   #.    *                  ",
"             X<&*@X %    .%    @o  .@*%           ",
"         X#%=#*     %     %    .>%*%o             ",
"       o#%X   O@    %.    * o%*%;                 ",
"               %    .@  o%>-@   %                 ",
"               %    .<#*@..%    @O                ",
"               %o#%*#*     %     %     @@         ",
"            X@**:.   #.    %     * o%*%O          ",
"         O=&#o  &    .%    @o  o#<*@              ",
"         O      &     %    o<#*@Xo#               ",
"                %X    *.#%*#%     *               ",
"                .@ .@*-*.   %     %               ",
"                @2&#o .%    @O    %.  o#%*        ",
"            @%*%o%     %     %    o>#*@X          ",
"          O&O    %.    &     *.#*%#*              ",
"                 X#    @o .#*,%X   &              ",
"                  %    #<%#o OO    %X             ",
"                  ;o%*%o%     %    .@             ",
"               o%;;#    %     %     *             ",
"            #%*@  .%    @o    %X    %             ",
"            X      %     %    o#    #             ",
"                   %     *     &                  ",
"                   @o    &                        ",
"                   .%    oX                       ",
"                    %                             ",
"                                                  ",
"                                                  ",
"                                                  ",
"                                                  ",
"                                                  ",
"                                                  ",
"                                                  ",
"                                                  "
};
