/* XPM */
static char *_ce7eebfbf9c4faccafdb98c07a09ae8NBsB22JlMNn1A3bX[] = {
/* columns rows colors chars-per-pixel */
"50 50 247 2 ",
"   c #1D1D1D",
".  c #171719",
"X  c #1F1F0E",
"o  c #393904",
"O  c #23231D",
"+  c #242415",
"@  c #2E2E0C",
"#  c #1D1D22",
"$  c #1B1B2B",
"%  c #1F2023",
"&  c #242423",
"*  c #292925",
"=  c #25252C",
"-  c #2C2C2C",
";  c #27282F",
":  c #302F29",
">  c #32322E",
",  c #393825",
"<  c #252535",
"1  c #2C2C33",
"2  c #2C2C3A",
"3  c #25263A",
"4  c #343433",
"5  c #3A3935",
"6  c #34343A",
"7  c #3B3B3B",
"8  c #38383A",
"9  c #2F303A",
"0  c #484609",
"q  c #585500",
"w  c #4A491B",
"e  c #575417",
"r  c #524F0D",
"t  c #605E09",
"y  c #6E6C01",
"u  c #676404",
"i  c #716D07",
"p  c #757201",
"a  c #7C7A00",
"s  c #7A7907",
"d  c #676519",
"f  c #797718",
"g  c #726F18",
"h  c #434229",
"j  c #4B4A25",
"k  c #565528",
"l  c #43423C",
"z  c #4B4B36",
"x  c #595838",
"c  c #504F26",
"v  c #696828",
"b  c #78782A",
"n  c #64643A",
"m  c #7B7A36",
"M  c #706D35",
"N  c #625F31",
"B  c #2B2C42",
"V  c #3B3C44",
"C  c #383945",
"Z  c #3B3C51",
"A  c #434343",
"S  c #4A4A44",
"D  c #44444B",
"F  c #4B4B4B",
"G  c #575749",
"H  c #4A4A55",
"J  c #535353",
"K  c #54555B",
"L  c #5B5B5C",
"P  c #595955",
"I  c #6B6949",
"U  c #777646",
"Y  c #63635E",
"T  c #6C6B5C",
"R  c #686853",
"E  c #787858",
"W  c #716F4A",
"Q  c #4B4C67",
"!  c #555563",
"~  c #5B5B63",
"^  c #5C5C69",
"/  c #575972",
"(  c #646465",
")  c #6B6B6C",
"_  c #676767",
"`  c #71716C",
"'  c #797864",
"]  c #656573",
"[  c #6B6B73",
"{  c #6C6C7B",
"}  c #66677C",
"|  c #737373",
" . c #7B7B75",
".. c #73737C",
"X. c #7B7B7B",
"o. c #777878",
"O. c #706F66",
"+. c #837E11",
"@. c #817F36",
"#. c #807F6A",
"$. c #817E4B",
"%. c #7F8055",
"&. c #848401",
"*. c #8C8C01",
"=. c #888607",
"-. c #918C04",
";. c #939200",
":. c #999400",
">. c #9C9B00",
",. c #9E9E0F",
"<. c #868416",
"1. c #989617",
"2. c #908D1C",
"3. c #A39D00",
"4. c #A49E1B",
"5. c #A5A202",
"6. c #ABA503",
"7. c #AEAA00",
"8. c #A9A50B",
"9. c #B2AB00",
"0. c #B1AA0D",
"q. c #BBB301",
"w. c #BCB606",
"e. c #B1AC14",
"r. c #BAB517",
"t. c #A5A219",
"y. c #888827",
"u. c #918C29",
"i. c #9A9827",
"p. c #858538",
"a. c #989637",
"s. c #918D30",
"d. c #ABA522",
"f. c #B9B326",
"g. c #B4AE37",
"h. c #C3BD01",
"j. c #C5BB07",
"k. c #C5BE14",
"l. c #C3BD27",
"z. c #C4BD3F",
"x. c #CBC301",
"c. c #C9C208",
"v. c #D5CD03",
"b. c #DDD201",
"n. c #C9C217",
"m. c #E6DA00",
"M. c #CEC72C",
"N. c #F3EC39",
"B. c #858549",
"V. c #999747",
"C. c #878758",
"Z. c #93925B",
"A. c #979554",
"S. c #908E4E",
"D. c #A19E58",
"F. c #A8A547",
"G. c #B6B246",
"H. c #A9A658",
"J. c #BAB65A",
"K. c #B1AF55",
"L. c #878669",
"P. c #989769",
"I. c #8B8A74",
"U. c #82827E",
"Y. c #8A8B7C",
"T. c #868676",
"R. c #9B9B73",
"E. c #96957A",
"W. c #918F7A",
"Q. c #A09E6E",
"!. c #A8A569",
"~. c #B9B665",
"^. c #A8A678",
"/. c #B7B57B",
"(. c #B1AE76",
"). c #C3BD44",
"_. c #C1BD58",
"`. c #C1BD76",
"'. c #C2BE6B",
"]. c #D0CB4C",
"[. c #CFCB6F",
"{. c #E1DC7C",
"}. c #6E6E81",
"|. c #797986",
" X c #787995",
".X c #7E80A3",
"XX c #7E8096",
"oX c #848484",
"OX c #8A8985",
"+X c #84848B",
"@X c #8C8C8C",
"#X c #92928C",
"$X c #9A9A8A",
"%X c #838494",
"&X c #8B8B93",
"*X c #8C8C9A",
"=X c #878798",
"-X c #8F9097",
";X c #949494",
":X c #9B9B95",
">X c #94949B",
",X c #9B9B9B",
"<X c #979897",
"1X c #A19F84",
"2X c #A6A588",
"3X c #B7B585",
"4X c #A2A29C",
"5X c #A7A695",
"6X c #B4B292",
"7X c #8A8BA7",
"8X c #9495A3",
"9X c #9C9CA3",
"0X c #9D9EAB",
"qX c #9394AC",
"wX c #9899B3",
"eX c #8E8FB0",
"rX c #A4A4A3",
"tX c #A4A4AB",
"yX c #ABABAB",
"uX c #A9A9A6",
"iX c #B4B4AA",
"pX c #A9A9B6",
"aX c #B4B4BB",
"sX c #B5B5B6",
"dX c #AFB0BE",
"fX c #9FA0A8",
"gX c #C0BE9D",
"hX c #CCCA9A",
"jX c #CECB8B",
"kX c #F4F09A",
"lX c #D5D3AA",
"zX c #C5C4B7",
"xX c #CBC9AC",
"cX c #BABAC7",
"vX c #AEB0CA",
"bX c #C4C4C3",
"nX c #CCCCCC",
"mX c #C7C7C7",
"MX c #D0D0CE",
"NX c #C7C8D6",
"BX c #D7D7D7",
"VX c #C9C9E4",
"CX c #DBDBE3",
"ZX c #DCDCF5",
"AX c #E5E5EA",
"SX c #ECECF6",
"DX c #E5E3C2",
/* pixels */
"4 4 4 4 4 4 4 > V z w c w G K ! K F w w G - 4 A J K K ! c k z A A 1 > 1 2 2 < - 1 - 4 5 8 5 5 6 8 5 ",
"J J J J J J L S %XkXx.x.v.hXCX{.DXCXz.h.hX9 F yXMXlXhXlXc.x.1.[ o.4 4 L v v b L L L Q H F H H S F S ",
"o.....X.o.X.A A U.SXd.9.:.L.g.h.~.NXiX7.B.$ J nXdXU.1.a.s &.d Y F - ; y.v.h.&.OXvX~.e.u.Q y.4...| | ",
"NX~.~.pX,X;X7 7 oXAXt.>.p T.n.a.tX:X%Xa.M $ F sX5X+X,XuXT a x { P * < :.m.*.I +XbX].m.j.Q r.v.m pXnX",
"pXD.:.Y X.oX4 7 OXCX,.a M %X<XwXa.Z. XC.n - 4 |.r.>.$X*XOXc _ J S - < 1.q.k  X'.m.A.y.*.Q p.y j ' $X",
"aXI.Y 9X@X| > 4 OXAXA.M ' tXrXpXy.R.,X+X) & 7 ( Z.V.!.tX4X&XOXA 4 > 1 a a W XXd.k.%.g p K | ] / 2.U ",
"rXiX+XoXo.S - & OXCXtX&X=XG.2X9XT.#X<X,X( O 1 J ..|._ P D P J 7 4 - 7 W O.+X,X,XT.8X' z ..;X#X;XY._ ",
"OX@XOX) J D - & +XSXrXT.7Xr.8.|.;X-X,X<X( = - S 7 4 > * = & * . = 7 4 ..aX$Xy.OX;XI.>X) oX,X@X@X,X@X",
"_ ( ( J 4 - & & o.AX:X+X^.k.:.|.:X;X&X8X( > = A 7 - 2 F J F ( | h 6 4  .pXS.n  X_.u.}  .| ) L _ ( P ",
"1 > - - & & = 4 _ nXnX+XL.6.B.oX,X+XL.S.] 4 * A ^ W.M.lXCXBXCXSX6.j 6 ~ ,X..) ! v w 8 A A 7 4 4 4 4 ",
"& - - - 4 > 4 7 L ,XnX;X>X+X*X,X+X<XY.W L 4 & - #XN.x.P.wX6X5XF.p.0 1 7 7 5 7 7 4 4 5 - - & = O & & ",
"7 4 > > : - - A F _ bX,X9X2XC.;XOX>XR.d ^ 7 & 4 9Xh.b 7XA.b.!.u.x r C 3 2 2 4 * 4 - - 4 4 4 4 4 4 4 ",
"| } ^ ( ] [ ) 4 A J aX2XW.e.>.*X@X,XT.n ^ F O 6 K.m.E *Xm.n. Xb x , D s.u.U ! 5 J [ }.{ { { ` { ..[ ",
"xXr.hXBXf.Z.+X- 4 F >X3Xd OXE +X_ ,XoX|.| S   2 c.A. X#Xe.+.=XE.F 6 6 w.q.p.Z S *X'.k.[.jX^.yXM.l.lX",
"c.:.t.r.;.N _ 4 4 F _ <XY &X+XU.) oX) _ _ V   >  .@XXXG.U ! L L J : 9 *.f ~ > H (.b.w.P.x.$.5Xh.*.' ",
":.$Xg.>.a k ( 4 - J F @X.._ P L ( L F F 7 * #   ;XoXY ) A - - - - & D s.<.[ & H (.e.oXR.;. .2Xh.*.%.",
"R.wXf.&.k T ~ - 1 J S 4 6 - O % & &   . . # # # S J & $ # $ # % *   L >XP.|.& S tXqX8X2XL.=X:XG.=.' ",
",X<XL.P ..oXL 4 * H P l : & - - =   - D S z z l | *XS.*.=.*.p.K > 7 ,XMXaX;X= H @X,X].;XeX5X,X,XE OX",
"E.9.C.=X#XX.F 5 & ' n.h.5.I.tXiXX.C F 2.h.r.f.3XCXAX[.q.c.q.5.=.O F NXnXnX2X, S ^.yX:X;X/.z.5X&XpXuX",
"P.*.$X>X@X| S > $ 1.q.;.E { ] | A A G ].~. .E.6X2XeXI.I.y.y.*.u   K jX2XwX].0 x r.|.*XM.v.y.#.@XoXoX",
"` O...` ( S 7 > $ <.:.G |.m <.W 8 7 K VXjX2XH.7.R.l.H.0Xy.P.f e X / f.$.qXV.@ z q 7 G +.u q j J J P ",
"D A 5 - *     = < u.-...:XI.&.g C 5 P NXN.(.w.p.>Xw.V.0XE.#X| w . Y W.oXmXR.X A > - & # + O & = 8 V ",
"- - 9 Z S D F L 1 sX>X8XV.C.b W 7 * G NX).R.3.I 0X-XfX&X3.y.}.0 $ i kXNXnX X* V 9 2 2 3 < < & * = & ",
"Y *XH.F.fXrXuXfX* 4XzXvXm P. X|.c X J MXhXG.*.M >X<XrXtX8.y.}.0 * s jXcX6XB.< l d g g <.g d D V l F ",
"..3Xq.&.|.iXuXrX= 4XmXtXY.Y.@XoXj + J 8XG.3.v { ,XuX@X;X0.f ] o & u jXNX0.y.< D p.*.>.9.7.9.:.p.~ S ",
"W q.&.T 8XF.7. .4 ,XBX#XpXp.Y.>Xw + 4 ..K.y.L.P.:X-XT.XX5.y.! 7 = e hXzX>.x ; J ,X..1.*.+.y y m K A ",
"T u.Y.U.XXa.*.| 4 ,XsX:XfX0X,X| c + 9 | AXzXx.>.%.%XU.*X8.+.! ; o s.vXzX*.e & L BXfX1.g  XR ( |.S A ",
"[ 9X,XfXE.0.p ` - <XnX&X!.f.@X|.c + - P bXzX&.d o.,XfXH.>.R J & O W NXfXy q X L zXfX1.f +X,X<X;XV A ",
"oXbX,XwXP.+.y O.1 oXBX%XK.;.@XqXw o - S 9XzXd ` +X9XC.m _ [ J & 9 K ,X%.u 0 , K iX>X1.f |.+XU.OX7 7 ",
"U.MX,XA.C.d | oX1 | CX#X;X>X-X%.z o & A ` sX,XXX| ` L S _ _ l % 8 J A 5 r h 8 F H 8 A D A A A A 5 4 ",
"U.BX0XV.L.W.a.OX4 L BX<X<XrX| XX^ 0 O A D P J F 8 4 - @ 5 A 1 * 5 S D A 8 C D D 1 - & & & & & & - 4 ",
"+XhX0.9XE.7.-.) 7 8 BXuX4X+X+X,X( 0 O 5 F 7 - 1 - > V D F F L L ( _ ` | }.m f s b }.| ` ` ` ) X.F D ",
"E q.-.:XR.+.y T 6 > MX0Xa.C.>X#.( r O 1 G 4.5.5.5.8.>.B.oX:X,XrXpXpXiXcX`.h.h.3.P.mXv.J.gXq.1.5XF S ",
"E 3.E 9X-X#.b J   8 MXtX$.G 9X|.L e   = u x.h.x.x.h.x.5.yXcXyXsX`.^.aXiXq.2.$.4.[.g.F.bXr.9.5.U V 7 ",
"E 5.E 9X<X,X9XF & 7 mXuX9X&X;X@XK 0   - h 9.7.3.5.>.5.*.p.yXiXyX7.i.tX,X(.<X'.h.9.o.eX5Xm 4.$.{ 8 8 ",
"x y.+X,X<X<X` D = A sX<X,X4X@XoXP 5   > 1 T.#Xa.*.;.*.a u +XcXyXY.Y.vX2XtX~.a.' oX4X6X>X.X4.#.) 7 > ",
"J <X@X#.[ K J & > 7 9XuX@X,X@X| L 7   - - sXZXK.p v d _  XW.6XtXtX*X^.M.F.8X+X..eX).9.yX,XV.` ) 5 > ",
"F F L Y P L P & 8 A oX@XOXX.X._ L 7   1 : rXAXR.T  XL.a.P.R.Z.aX:XpX/.$XR.!.^.8X6X8.p.uX9XS.s.[ 4 1 ",
"J A 4 1 ; > - * A A S 7 7 l A 7 7 7   - * ;XBX,X4XtX~.q.+.tX>XuX,X7X~.0.y.5X6XfX2XZ.tX,X#X2XA.) 4 > ",
"F K G z h 9 B 2 l 7 > O & & O & & & & & < #.oX_ O.] U y d $X@XX.$X[.q.<.-X-XtX@X9X9X+X^.F.7X&X) 4 - ",
"K 2XM.b.v.f.B.v [ Q Z B < < < < 3 < - * 6 F A 4 - - ; 1 D _ )  .a.I.e | | ( { %.U.| | -X( ) | L - > ",
"/ J.m.k.A.F.F.(.6Xr.l.4.1.<.+.+.<.g ~ Y J P H A 7 A A 7 > 4 5 7 B - 7 5 6 7 C 1 > > > - > 4 > - - A ",
"P sX3X4.0XvXvXvXiX`.^.D.7.8.e.6.7.>.p.&XyXuX:X,X,X| F F 8 1 2 1 4 4 4 - - - ; & = = = - * - = > V F ",
"L sXcXuXcXhX(.2XaXaXvXaX9XP.C.=XU =.@.>XaXxXm.F.dX` 4 J F x N k l > 4 7 V 6 j z h h , > 9 6 8 F F J ",
"L sXnXaX0X).7.f cXmXmXzXcX[.~.yXtX0XpX,XyXiXG.T.o.F & F x 3.5.5.` <XoXP G -.c.h.<.-.s. XC.#.| P F J ",
"Y iX@X .] p.y T #XX.&XoXX.%X*X@X<XiXuXo.| @X}.| ~ F - 4 F @.&.y | BXnX_ R D.Z.S.| 1XiX5Xv.Z.dXsXS A ",
"P o.S 4 6 5 5 7 7 4 4 7 4 > > 4 6 7 8 5 4 > > 5 5 7 - O K W.p R +Xo.>X_ L =X8XeX~.x.5X1X-.R >X4X- D ",
"D - # - O   %     & & # & & & & O O # # & & & & # # % * A , 0 z H F F S S L |.H.9.1.' A.M }.#.o.> D ",
"P J F S V A 7 A A 5 4 4 4 4 4 4 4 4 4 4 4 4 4 4 4 4 4 4 8 S j 7 - = * * 7 F 8 o * B 4 o : > - 4 = S ",
"7 7 A 7 7 7 7 7 A 7 8 8 7 7 8 5 7 7 8 8 7 7 7 8 8 5 7 8 5 7 V 7 7 7 7 7 7 7 4 2 > : > 2 1 : > > > 7 "
};
