/* XPM */
static char *f192c29a07f949a7eed3ff3211b1cbbcQgaO9Ad6cPVoIJUW[] = {
/* columns rows colors chars-per-pixel */
"50 50 17 1 ",
"  c #8CCDFD",
". c #90CFFD",
"X c #93D0FD",
"o c #96D2FD",
"O c #9AD3FD",
"+ c #9ED4FD",
"@ c #A2D6FD",
"# c #A4D7FD",
"$ c #A5D8FD",
"% c #A7D8FD",
"& c #A8D9FD",
"* c #ACDBFD",
"= c #AEDBFE",
"- c #B0DCFE",
"; c #B5DEFE",
": c #B7E0FE",
"> c #B9E0FE",
/* pixels */
"                                                  ",
"                                                  ",
"                                                  ",
"                                                  ",
"                                                  ",
"                                                  ",
"                                                  ",
"                           X                      ",
"                           %                      ",
"                     O.    #                      ",
"                .    oO    O.                     ",
"                #     @    .@                     ",
"          Oo    #     @     @      o              ",
"           @    OO    @     %  O%##               ",
"           @     @    .O   O=&@o                  ",
"           @     @     -@@@o.@                    ",
"           Oo    #..@#@&     @                    ",
"            @  XO&-+   @.    #                    ",
"            :@%O. @    .@    O. ..O%#             ",
"        O#%O%     @     @    .=@%OX               ",
"     XO%X   oO    @.    % X@%@%                   ",
"             @    .O  .@=&O   @                   ",
"             @    .;@#O. @    Oo                  ",
"             @X@@#O&     @     @     OO           ",
"           O%%*   .OX    @     % XO%#o            ",
"       O%@Oo  @    .@    OX. XO:#O                ",
"       o      O     @    o-O%O.oO                 ",
"              #X    % O@%O%     #                 ",
"               O XO%&&.   @     #                 ",
"              O>%OX  %    Oo    #X  XO@%          ",
"          O%&OX@     O     @    O*O#OX            ",
"        OOo  X @     @     %XO%@O%                ",
"               .O    OX  O%=@    @                ",
"                @    @:@Oo OO    @                ",
"                %o@%@X@     @    XO               ",
"             X@%*O    @     @     %               ",
"          o##O  .@    Oo    #     @               ",
"          .      @     @    oO    O               ",
"                 @     %     @                    ",
"                 O.    @                          ",
"                 .#    X.                         ",
"                  @                               ",
"                                                  ",
"                                                  ",
"                                                  ",
"                                                  ",
"                                                  ",
"                                                  ",
"                                                  ",
"                                                  "
};
